<?xml version="1.0" encoding="iso-8859-1"?>
<!-- Generator: Adobe Illustrator 19.0.0, SVG Export Plug-In . SVG Version: 6.00 Build 0)  -->
<svg version="1.1" id="drag" xmlns="http://www.w3.org/2000/svg" xmlns:xlink="http://www.w3.org/1999/xlink" x="0px" y="0px"
	 viewBox="0 0 512 512" style="enable-background:new 0 0 512 512; background: #F1C40F" xml:space="preserve">
<g>
	<g>
		<path d="M512,298.667V0H213.333v268.497L42.667,439.163v-76.497c0-11.782-9.551-21.333-21.333-21.333
			C9.551,341.333,0,350.885,0,362.667v128c0,0.703,0.037,1.405,0.106,2.105c0.031,0.315,0.09,0.621,0.135,0.933
			c0.054,0.377,0.098,0.756,0.173,1.13c0.071,0.358,0.169,0.704,0.258,1.055c0.081,0.324,0.152,0.649,0.249,0.969
			c0.104,0.344,0.233,0.677,0.354,1.013c0.115,0.32,0.22,0.642,0.35,0.957c0.13,0.315,0.284,0.616,0.429,0.923
			c0.153,0.324,0.297,0.651,0.467,0.969c0.158,0.294,0.337,0.573,0.508,0.859c0.186,0.311,0.362,0.627,0.565,0.931
			c0.211,0.316,0.446,0.612,0.673,0.916c0.19,0.254,0.366,0.514,0.569,0.761c0.443,0.54,0.91,1.059,1.403,1.552
			c0.004,0.004,0.006,0.008,0.01,0.011c0.004,0.004,0.008,0.007,0.012,0.011c0.493,0.492,1.012,0.959,1.551,1.402
			c0.247,0.203,0.507,0.379,0.76,0.568c0.304,0.227,0.601,0.463,0.917,0.674c0.303,0.203,0.618,0.379,0.93,0.565
			c0.286,0.171,0.565,0.35,0.86,0.508c0.318,0.17,0.645,0.314,0.969,0.467c0.307,0.145,0.609,0.298,0.923,0.428
			c0.315,0.13,0.636,0.235,0.956,0.35c0.337,0.121,0.67,0.25,1.015,0.355c0.32,0.097,0.645,0.168,0.968,0.249
			c0.351,0.089,0.698,0.187,1.056,0.258c0.375,0.074,0.753,0.118,1.13,0.172c0.311,0.044,0.618,0.104,0.933,0.135
			c0.7,0.069,1.402,0.106,2.104,0.106c0,0,0.001,0,0.001,0h128c11.782,0,21.333-9.551,21.333-21.333s-9.551-21.333-21.333-21.333
			H72.837l170.667-170.667H512z M256,42.667h213.333V256H256V42.667z"/>
	</g>
</g>
<g>
</g>
<g>
</g>
<g>
</g>
<g>
</g>
<g>
</g>
<g>
</g>
<g>
</g>
<g>
</g>
<g>
</g>
<g>
</g>
<g>
</g>
<g>
</g>
<g>
</g>
<g>
</g>
<g>
</g>
</svg>
