<?xml version="1.0" encoding="iso-8859-1"?>
<!-- Generator: Adobe Illustrator 19.0.0, SVG Export Plug-In . SVG Version: 6.00 Build 0)  -->
<svg version="1.1" id="Layer_1" xmlns="http://www.w3.org/2000/svg" xmlns:xlink="http://www.w3.org/1999/xlink" x="0px" y="0px"
	 viewBox="0 0 512 512" style="enable-background:new 0 0 512 512;" xml:space="preserve">
<g>
	<g>
		<path d="M256,0L148.372,179.38h215.256L256,0z M256,30.391l80.012,133.352H175.988L256,30.391z"/>
	</g>
</g>
<g>
	<g>
		<path d="M148.372,332.62L256,512l107.628-179.38H148.372z M175.988,348.256h160.023L256,481.609L175.988,348.256z"/>
	</g>
</g>
<g>
	<g>
		<path d="M256,196.06c-33.052,0-59.94,26.889-59.94,59.94s26.889,59.94,59.94,59.94s59.94-26.889,59.94-59.94
			S289.052,196.06,256,196.06z M256,300.304c-24.43,0-44.304-19.874-44.304-44.304S231.57,211.696,256,211.696
			S300.304,231.57,300.304,256S280.43,300.304,256,300.304z"/>
	</g>
</g>
<g>
</g>
<g>
</g>
<g>
</g>
<g>
</g>
<g>
</g>
<g>
</g>
<g>
</g>
<g>
</g>
<g>
</g>
<g>
</g>
<g>
</g>
<g>
</g>
<g>
</g>
<g>
</g>
<g>
</g>
</svg>
