<?xml version="1.0" encoding="utf-8"?>
<!-- Generator: Adobe Illustrator 16.0.0, SVG Export Plug-In . SVG Version: 6.00 Build 0)  -->
<!DOCTYPE svg PUBLIC "-//W3C//DTD SVG 1.1//EN" "http://www.w3.org/Graphics/SVG/1.1/DTD/svg11.dtd">
<svg id="suzie-logo" version="1.1" xmlns="http://www.w3.org/2000/svg" xmlns:xlink="http://www.w3.org/1999/xlink" x="0px" y="0px"
	 width="162.3px" height="63.246px" viewBox="450.299 94.008 162.3 63.246" enable-background="new 450.299 94.008 162.3 63.246"
	 xml:space="preserve">
<title>suzy source</title>
<g>
	<path d="M460.833,140.899c-3.353-0.651-7.432-1.389-10.534-3.548l0,0v5.779c3.04,2.394,8.063,4.573,11.908,4.573
		c3.528,0,4.989-1.307,4.989-3.141C467.206,142.378,464.673,141.593,460.833,140.899z"/>
	<path d="M518.335,125.553v-12.517h-12.411v27.887c-1.437,2.054-3.869,4.199-7.417,4.199c-4.032,0-6.45-1.786-6.45-6.972v-25.114
		h-12.416v12.65c-2.792-1.403-5.858-2.173-8.982-2.255c-2.763,0-4.683,1.048-4.683,2.873c0,1.915,1.996,2.619,5.913,3.404
		c2.395,0.479,5.176,0.996,7.752,2.078v11.971c0,7.953,3.95,13.493,12.818,13.493c5.209,0.088,10.171-2.218,13.46-6.258v5.186
		h12.411v-10.912l14.613-19.713H518.335z"/>
	<path d="M564.024,101.937c0,4.443-3.352,7.901-7.661,7.891s-7.59-3.496-7.575-7.968c0-4.386,3.352-7.833,7.599-7.853
		C560.634,93.988,564.029,97.518,564.024,101.937z"/>
	<polygon points="549.55,112.912 549.55,124.715 532.953,144.859 549.55,144.864 549.55,155.929 562.956,155.929 562.956,112.912
		"/>
	<path d="M611.528,135.311c-1.268-0.281-2.521-0.626-3.754-1.034l-4.568-1.288c-0.119,0.589-0.182,1.039-0.306,1.475
		c-1.375,4.735-4.018,8.389-9.012,9.868c-2.715,0.805-5.233,0.22-7.565-1.479c0.292-0.273,0.479-0.479,0.68-0.637
		c6.285-5.583,12.577-11.16,18.875-16.73c0.829-0.728,0.853-1.336,0.364-2.236c-4.219-7.724-13.072-11.755-22.098-10.026
		c-10.151,1.939-17.788,12.234-16.309,22.27c0.996,6.78,4.204,11.971,9.246,15.758c1.249,0.934,2.57,1.768,3.95,2.495
		c0.729,0.361,1.479,0.681,2.245,0.958c2.327,0.825,4.776,1.246,7.245,1.245c1.506-0.004,3.008-0.165,4.481-0.479
		c1.376-0.289,2.72-0.712,4.013-1.264c0.796-0.415,1.569-0.87,2.317-1.365c2.963-1.992,5.526-4.523,7.556-7.46
		c1.809-2.485,3.05-5.338,3.635-8.355C612.683,136.159,612.688,135.517,611.528,135.311z M581.54,124.696
		c4.127-3.534,9.063-2.749,12.119,0.201l-13.407,11.942C577.196,132.615,577.938,127.779,581.54,124.696z"/>
</g>
</svg>
